<svg width="9" height="9" viewBox="0 0 9 9" fill="none" xmlns="http://www.w3.org/2000/svg">
<path d="M8.475 9C7.43333 9 6.40417 8.77292 5.3875 8.31875C4.37083 7.86458 3.44583 7.22083 2.6125 6.3875C1.77917 5.55417 1.13542 4.62917 0.68125 3.6125C0.227083 2.59583 0 1.56667 0 0.525C0 0.375 0.05 0.25 0.15 0.15C0.25 0.05 0.375 0 0.525 0H2.55C2.66667 0 2.77083 0.0395833 2.8625 0.11875C2.95417 0.197917 3.00833 0.291667 3.025 0.4L3.35 2.15C3.36667 2.28333 3.3625 2.39583 3.3375 2.4875C3.3125 2.57917 3.26667 2.65833 3.2 2.725L1.9875 3.95C2.15417 4.25833 2.35208 4.55625 2.58125 4.84375C2.81042 5.13125 3.0625 5.40833 3.3375 5.675C3.59583 5.93333 3.86667 6.17292 4.15 6.39375C4.43333 6.61458 4.73333 6.81667 5.05 7L6.225 5.825C6.3 5.75 6.39792 5.69375 6.51875 5.65625C6.63958 5.61875 6.75833 5.60833 6.875 5.625L8.6 5.975C8.71667 6.00833 8.8125 6.06875 8.8875 6.15625C8.9625 6.24375 9 6.34167 9 6.45V8.475C9 8.625 8.95 8.75 8.85 8.85C8.75 8.95 8.625 9 8.475 9ZM1.5125 3L2.3375 2.175L2.125 1H1.0125C1.05417 1.34167 1.1125 1.67917 1.1875 2.0125C1.2625 2.34583 1.37083 2.675 1.5125 3ZM5.9875 7.475C6.3125 7.61667 6.64375 7.72917 6.98125 7.8125C7.31875 7.89583 7.65833 7.95 8 7.975V6.875L6.825 6.6375L5.9875 7.475Z" fill="#44483F"/>
</svg>
