<svg width="41" height="41" viewBox="0 0 41 41" fill="none" xmlns="http://www.w3.org/2000/svg">
<path d="M0.75 9.86538C0.75 26.6458 14.3542 40.25 31.1346 40.25H35.6923C36.9011 40.25 38.0603 39.7698 38.9151 38.9151C39.7698 38.0603 40.25 36.9011 40.25 35.6923V32.9131C40.25 31.8679 39.539 30.9564 38.5242 30.7032L29.5647 28.4628C28.6735 28.24 27.7376 28.5742 27.1887 29.3075L25.2238 31.9266C24.6526 32.6883 23.6661 33.0245 22.7728 32.6964C19.4566 31.4772 16.445 29.5518 13.9466 27.0534C11.4482 24.555 9.52279 21.5434 8.30362 18.2272C7.97546 17.3339 8.31172 16.3474 9.07336 15.7762L11.6925 13.8113C12.4278 13.2624 12.76 12.3245 12.5372 11.4353L10.2968 2.47585C10.1736 1.983 9.88913 1.54548 9.48872 1.23279C9.08832 0.920095 8.59491 0.750169 8.08687 0.75H5.30769C4.09892 0.75 2.93965 1.23018 2.08492 2.08492C1.23018 2.93965 0.75 4.09892 0.75 5.30769V9.86538Z" stroke="#137FEC" stroke-width="1.5" stroke-linecap="round" stroke-linejoin="round"/>
</svg>
