<svg width="25" height="25" viewBox="0 0 25 25" fill="none" xmlns="http://www.w3.org/2000/svg">
<path d="M9.86438 17.2048L8.88462 20.6346L7.90485 17.2048C7.65162 16.3189 7.17683 15.5121 6.52529 14.8605C5.87374 14.209 5.06694 13.7342 4.181 13.481L0.75 12.5L4.1798 11.5202C5.06573 11.267 5.87254 10.7922 6.52408 10.1407C7.17562 9.48913 7.65041 8.68232 7.90364 7.79638L8.88462 4.36538L9.86438 7.79518C10.1176 8.68112 10.5924 9.48792 11.2439 10.1395C11.8955 10.791 12.7023 11.2658 13.5882 11.519L17.0192 12.5L13.5894 13.4798C12.7035 13.733 11.8967 14.2078 11.2451 14.8593C10.5936 15.5109 10.1188 16.3177 9.86559 17.2036L9.86438 17.2048ZM20.0429 8.54115L19.7308 9.78846L19.4186 8.54115C19.24 7.82602 18.8703 7.17288 18.3492 6.65155C17.8281 6.13022 17.1751 5.76031 16.4601 5.58136L15.2115 5.26923L16.4601 4.9571C17.1751 4.77815 17.8281 4.40824 18.3492 3.88691C18.8703 3.36559 19.24 2.71244 19.4186 1.99731L19.7308 0.75L20.0429 1.99731C20.2217 2.71259 20.5915 3.36584 21.1128 3.88718C21.6342 4.40852 22.2874 4.77834 23.0027 4.9571L24.25 5.26923L23.0027 5.58136C22.2874 5.76012 21.6342 6.12995 21.1128 6.65129C20.5915 7.17262 20.2217 7.82587 20.0429 8.54115ZM18.3979 22.8243L17.9231 24.25L17.4483 22.8243C17.3151 22.425 17.0909 22.0621 16.7932 21.7645C16.4956 21.4668 16.1327 21.2426 15.7334 21.1094L14.3077 20.6346L15.7334 20.1598C16.1327 20.0267 16.4956 19.8024 16.7932 19.5048C17.0909 19.2071 17.3151 18.8442 17.4483 18.4449L17.9231 17.0192L18.3979 18.4449C18.531 18.8442 18.7553 19.2071 19.0529 19.5048C19.3506 19.8024 19.7135 20.0267 20.1128 20.1598L21.5385 20.6346L20.1128 21.1094C19.7135 21.2426 19.3506 21.4668 19.0529 21.7645C18.7553 22.0621 18.531 22.425 18.3979 22.8243Z" stroke="#10A922" stroke-width="1.5" stroke-linecap="round" stroke-linejoin="round"/>
</svg>
