<svg width="40" height="40" viewBox="0 0 40 40" fill="none" xmlns="http://www.w3.org/2000/svg">
<path d="M34 5.8201C32.1661 3.96831 29.982 2.50004 27.575 1.50083C25.168 0.501624 22.5861 -0.00852633 19.98 0.00010779C9.05999 0.00010779 0.16 8.9001 0.16 19.8201C0.16 23.3201 1.08 26.7201 2.8 29.7201L0 40.0001L10.5 37.2401C13.4 38.8201 16.66 39.6601 19.98 39.6601C30.9 39.6601 39.7999 30.7601 39.7999 19.8401C39.7999 14.5401 37.7399 9.56009 34 5.8201ZM19.98 36.3001C17.02 36.3001 14.12 35.5001 11.58 34.0001L10.98 33.6401L4.73999 35.2801L6.39999 29.2001L5.99999 28.5801C4.35509 25.9542 3.48185 22.9186 3.48 19.8201C3.48 10.7401 10.88 3.3401 19.96 3.3401C24.36 3.3401 28.5 5.0601 31.6 8.1801C33.1352 9.70782 34.3518 11.5252 35.1792 13.5267C36.0066 15.5283 36.4283 17.6743 36.42 19.8401C36.46 28.9201 29.06 36.3001 19.98 36.3001ZM29.02 23.9801C28.52 23.7401 26.08 22.5401 25.64 22.3601C25.18 22.2001 24.86 22.1201 24.52 22.6001C24.18 23.1001 23.24 24.2201 22.96 24.5401C22.68 24.8801 22.38 24.9201 21.88 24.6601C21.38 24.4201 19.78 23.8801 17.9 22.2001C16.42 20.8801 15.44 19.2601 15.14 18.7601C14.86 18.2601 15.1 18.0001 15.36 17.7401C15.58 17.5201 15.86 17.1601 16.1 16.8801C16.34 16.6001 16.44 16.3801 16.6 16.0601C16.76 15.7201 16.68 15.4401 16.56 15.2001C16.44 14.9601 15.44 12.5201 15.04 11.5201C14.64 10.5601 14.22 10.6801 13.92 10.6601H12.96C12.62 10.6601 12.1 10.7801 11.64 11.2801C11.2 11.7801 9.91999 12.9801 9.91999 15.4201C9.91999 17.8601 11.7 20.2201 11.94 20.5401C12.18 20.8801 15.44 25.8801 20.4 28.0201C21.58 28.5401 22.5 28.8401 23.22 29.0601C24.4 29.4401 25.48 29.3801 26.34 29.2601C27.3 29.1201 29.28 28.0601 29.68 26.9001C30.1 25.7401 30.1 24.7601 29.96 24.5401C29.82 24.3201 29.52 24.2201 29.02 23.9801Z" fill="#10A922"/>
</svg>
