<svg width="15" height="15" viewBox="0 0 15 15" fill="none" xmlns="http://www.w3.org/2000/svg">
<path d="M10 6.25C10 4.86875 8.88125 3.75 7.5 3.75C6.11875 3.75 5 4.86875 5 6.25C5 7.63125 6.11875 8.75 7.5 8.75C8.88125 8.75 10 7.63125 10 6.25ZM6.25 6.25C6.25 5.5625 6.8125 5 7.5 5C8.1875 5 8.75 5.5625 8.75 6.25C8.75 6.9375 8.1875 7.5 7.5 7.5C6.8125 7.5 6.25 6.9375 6.25 6.25Z" fill="#0D7F1A"/>
<path d="M7.13756 13.6297C7.24381 13.7047 7.37506 13.7484 7.50006 13.7484C7.62506 13.7484 7.75631 13.7109 7.86256 13.6297C8.05006 13.4922 12.5188 10.2734 12.5001 6.24219C12.5001 3.48594 10.2563 1.24219 7.50006 1.24219C4.74381 1.24219 2.50006 3.48594 2.50006 6.24219C2.48131 10.2672 6.95006 13.4922 7.13756 13.6297ZM7.50006 2.49844C9.56881 2.49844 11.2501 4.17969 11.2501 6.24844C11.2626 9.02344 8.50631 11.5172 7.50006 12.3359C6.49381 11.5172 3.73756 9.02969 3.75006 6.24844C3.75006 4.17969 5.43131 2.49844 7.50006 2.49844Z" fill="#0D7F1A"/>
</svg>
