<svg width="18" height="12" viewBox="0 0 18 12" fill="none" xmlns="http://www.w3.org/2000/svg">
<path d="M8.01562 12H9.98438C10.5469 12 11.0156 11.5312 11.0156 11.0156C11.0156 10.4531 10.5469 9.98438 9.98438 9.98438H8.01562C7.45312 9.98438 6.98438 10.4531 6.98438 11.0156C6.98438 11.5312 7.45312 12 8.01562 12ZM0 0.984375C0 1.54688 0.46875 2.01562 0.984375 2.01562H17.0156C17.5312 2.01562 18 1.54688 18 0.984375C18 0.46875 17.5312 0 17.0156 0H0.984375C0.46875 0 0 0.46875 0 0.984375ZM3.98438 6.98438H14.0156C14.5312 6.98438 15 6.5625 15 6C15 5.4375 14.5312 5.01562 14.0156 5.01562H3.98438C3.46875 5.01562 3 5.4375 3 6C3 6.5625 3.46875 6.98438 3.98438 6.98438Z" fill="#64748B"/>
</svg>
