<svg width="36" height="36" viewBox="0 0 36 36" fill="none" xmlns="http://www.w3.org/2000/svg">
<path fill-rule="evenodd" clip-rule="evenodd" d="M17.875 35.75C27.7475 35.75 35.75 27.7475 35.75 17.875C35.75 8.0025 27.7475 0 17.875 0C8.0025 0 0 8.0025 0 17.875C0 27.7475 8.0025 35.75 17.875 35.75ZM10.0283 16.9033C9.77084 17.1611 9.62621 17.5106 9.62621 17.875C9.62621 18.2394 9.77084 18.5889 10.0283 18.8467L15.5283 24.3467C15.6542 24.4818 15.806 24.5901 15.9747 24.6653C16.1433 24.7404 16.3254 24.7808 16.51 24.7841C16.6947 24.7873 16.878 24.7534 17.0493 24.6842C17.2205 24.6151 17.376 24.5121 17.5066 24.3816C17.6371 24.251 17.7401 24.0955 17.8092 23.9243C17.8784 23.7531 17.9123 23.5697 17.9091 23.385C17.9058 23.2004 17.8654 23.0183 17.7903 22.8497C17.7151 22.681 17.6068 22.5292 17.4717 22.4033L14.3183 19.25H24.75C25.1147 19.25 25.4644 19.1051 25.7223 18.8473C25.9801 18.5894 26.125 18.2397 26.125 17.875C26.125 17.5103 25.9801 17.1606 25.7223 16.9027C25.4644 16.6449 25.1147 16.5 24.75 16.5H14.3183L17.4717 13.3467C17.6068 13.2208 17.7151 13.069 17.7903 12.9003C17.8654 12.7317 17.9058 12.5496 17.9091 12.365C17.9123 12.1803 17.8784 11.9969 17.8092 11.8257C17.7401 11.6545 17.6371 11.499 17.5066 11.3684C17.376 11.2379 17.2205 11.1349 17.0493 11.0658C16.878 10.9966 16.6947 10.9627 16.51 10.9659C16.3254 10.9692 16.1433 11.0096 15.9747 11.0847C15.806 11.1599 15.6542 11.2682 15.5283 11.4033L10.0283 16.9033Z" fill="#B1CDB4"/>
</svg>
