<svg width="24" height="24" viewBox="0 0 24 24" fill="none" xmlns="http://www.w3.org/2000/svg">
<path d="M8 21V17C8 16.4477 7.55228 16 7 16H3C2.44772 16 2 16.4477 2 17V21C2 21.5523 2.44772 22 3 22H7C7.55228 22 8 21.5523 8 21Z" stroke="#6B7280" stroke-width="2" stroke-linecap="round" stroke-linejoin="round"/>
<path d="M8 7V3C8 2.44772 7.55228 2 7 2H3C2.44772 2 2 2.44772 2 3V7C2 7.55228 2.44772 8 3 8H7C7.55228 8 8 7.55228 8 7Z" stroke="#6B7280" stroke-width="2" stroke-linecap="round" stroke-linejoin="round"/>
<path d="M22 14V10C22 9.44772 21.5523 9 21 9H17C16.4477 9 16 9.44772 16 10V14C16 14.5523 16.4477 15 17 15H21C21.5523 15 22 14.5523 22 14Z" stroke="#6B7280" stroke-width="2" stroke-linecap="round" stroke-linejoin="round"/>
<path d="M8 5H11C11.2652 5 11.5196 5.10536 11.7071 5.29289C11.8946 5.48043 12 5.73478 12 6V18C12 18.2652 11.8946 18.5196 11.7071 18.7071C11.5196 18.8946 11.2652 19 11 19H8M12 12H16" stroke="#6B7280" stroke-width="2" stroke-linecap="round" stroke-linejoin="round"/>
</svg>
