<svg xmlns="http://www.w3.org/2000/svg" viewBox="0 0 36 36" height="36" width="36"><g xmlns="http://www.w3.org/2000/svg" transform="matrix(-1 0 0 -1 36 36)"><path fill-rule="evenodd" clip-rule="evenodd" d="M17.875 0C8.0025 0 0 8.0025 0 17.875C0 27.7475 8.0025 35.75 17.875 35.75C27.7475 35.75 35.75 27.7475 35.75 17.875C35.75 8.0025 27.7475 0 17.875 0ZM25.7217 18.8467C25.9792 18.5889 26.1238 18.2394 26.1238 17.875C26.1238 17.5106 25.9792 17.1611 25.7217 16.9033L20.2217 11.4033C20.0958 11.2682 19.944 11.1599 19.7753 11.0847C19.6067 11.0096 19.4246 10.9692 19.24 10.9659C19.0553 10.9627 18.872 10.9966 18.7007 11.0658C18.5295 11.1349 18.374 11.2379 18.2434 11.3684C18.1129 11.499 18.0099 11.6545 17.9408 11.8257C17.8716 11.9969 17.8377 12.1803 17.8409 12.365C17.8442 12.5496 17.8846 12.7317 17.9597 12.9003C18.0349 13.069 18.1432 13.2208 18.2783 13.3467L21.4317 16.5H11C10.6353 16.5 10.2856 16.6449 10.0277 16.9027C9.76987 17.1606 9.625 17.5103 9.625 17.875C9.625 18.2397 9.76987 18.5894 10.0277 18.8473C10.2856 19.1051 10.6353 19.25 11 19.25H21.4317L18.2783 22.4033C18.1432 22.5292 18.0349 22.681 17.9597 22.8497C17.8846 23.0183 17.8442 23.2004 17.8409 23.385C17.8377 23.5697 17.8716 23.7531 17.9408 23.9243C18.0099 24.0955 18.1129 24.251 18.2434 24.3816C18.374 24.5121 18.5295 24.6151 18.7007 24.6842C18.872 24.7534 19.0553 24.7873 19.24 24.7841C19.4246 24.7808 19.6067 24.7404 19.7753 24.6653C19.944 24.5901 20.0958 24.4818 20.2217 24.3467L25.7217 18.8467Z" fill="#10A922" /></g></svg>