<svg width="69" height="58" viewBox="0 0 69 58" fill="none" xmlns="http://www.w3.org/2000/svg">
<path d="M46.0986 5.42773C46.5786 5.42773 46.9804 5.80084 46.9805 6.27539C46.9805 6.75002 46.5786 7.12305 46.0986 7.12305C41.9817 7.12314 38.293 9.74691 37.123 13.4932C36.9923 13.9144 36.5555 14.1589 36.1221 14.083L36.1182 14.0889L36.0293 14.0635C35.5668 13.932 35.2922 13.4622 35.4346 13.0068C36.8001 8.63307 41.0494 5.42783 46.0986 5.42773Z" fill="#483EA8" stroke="#F9FFF9" stroke-width="0.3"/>
<path d="M56.3438 40.4507H51.9534C51.5494 40.4507 51.2217 40.1383 51.2217 39.7532C51.2217 39.3681 51.5494 39.0557 51.9534 39.0557H56.3438C62.3956 39.0557 67.3197 34.3623 67.3197 28.5939C67.3197 22.8255 62.3956 18.132 56.3438 18.132H56.2382C56.026 18.132 55.8242 18.0444 55.6852 17.8914C55.5462 17.7385 55.4834 17.5357 55.5138 17.3354C55.5791 16.901 55.612 16.4646 55.612 16.0397C55.612 11.0404 51.3444 6.97267 46.0995 6.97267C44.059 6.97267 42.1131 7.58046 40.4719 8.73075C40.1112 8.98333 39.599 8.87124 39.3905 8.49311C34.7425 0.0569031 22.6023 -1.07599 16.3082 6.26277C13.6568 9.35449 12.615 13.3763 13.4498 17.2961C13.5418 17.729 13.1942 18.1326 12.7327 18.1326H12.4395C6.3876 18.1326 1.46353 22.826 1.46353 28.5944C1.46353 34.3629 6.3876 39.0563 12.4395 39.0563H16.8298C17.2338 39.0563 17.5615 39.3686 17.5615 39.7537C17.5615 40.1388 17.2338 40.4512 16.8298 40.4512H12.4395C5.5805 40.4512 0 35.1321 0 28.5944C0 22.2401 5.27155 17.037 11.8651 16.75C11.2457 12.6833 12.4301 8.58127 15.1751 5.38C21.9138 -2.47784 34.828 -1.59708 40.2871 7.16499C42.0287 6.12427 44.0215 5.57832 46.0992 5.57832C52.4538 5.57832 57.4892 10.7336 57.0486 16.7565C63.5813 17.1058 68.7829 22.2814 68.7829 28.5939C68.7829 35.1321 63.2024 40.4507 56.3434 40.4507L56.3438 40.4507Z" fill="#483EA8"/>
<path d="M34.2939 21.7715C44.4568 21.7717 52.7372 29.6544 52.7373 39.3584C52.7373 49.0623 44.4568 56.9451 34.2939 56.9453C24.131 56.9453 15.8496 49.0626 15.8496 39.3584C15.8497 29.6544 24.1309 21.7715 34.2939 21.7715ZM34.2939 23.4668C25.0901 23.4668 17.6143 30.6029 17.6143 39.3584C17.6143 48.1141 25.0902 55.25 34.2939 55.25C43.4975 55.2498 50.9736 48.1138 50.9736 39.3584C50.9736 30.6029 43.4975 23.467 34.2939 23.4668Z" fill="#483EA8" stroke="#F9FFF9" stroke-width="0.3"/>
<path d="M34.6279 32.4434C34.9995 32.4436 35.3135 32.7332 35.3135 33.1045V46.3809C35.3133 46.7525 34.9993 47.0408 34.6279 47.041C34.2563 47.041 33.9416 46.7522 33.9414 46.3809V33.1045C33.9414 32.733 34.2562 32.4434 34.6279 32.4434Z" fill="#483EA8" stroke="#483EA8" stroke-width="0.3"/>
<path d="M34.1455 32.6348C34.4124 32.3799 34.8432 32.3801 35.1104 32.6348L39.3965 36.7197C39.6675 36.9783 39.6676 37.4006 39.3965 37.6592C39.2621 37.7877 39.0866 37.8495 38.9141 37.8496C38.7412 37.8496 38.5658 37.787 38.4316 37.6592L34.6279 34.0342L30.8252 37.6592C30.5583 37.914 30.1276 37.9137 29.8604 37.6592C29.589 37.4006 29.589 36.9783 29.8604 36.7197L34.1455 32.6348Z" fill="#483EA8" stroke="#483EA8" stroke-width="0.3"/>
</svg>
