<svg width="29" height="29" viewBox="0 0 29 29" fill="none" xmlns="http://www.w3.org/2000/svg">
<path d="M23.0494 5.91489C20.7998 3.6745 17.754 2.41705 14.579 2.41797C7.97428 2.41797 2.57545 7.77934 2.57545 14.3853C2.57545 16.5216 3.1192 18.542 4.16803 20.4064L2.45703 26.5846L8.86845 24.9534C10.6169 25.885 12.5986 26.4288 14.6189 26.4288C21.185 26.3901 26.5452 21.0275 26.5452 14.3853C26.5452 11.1989 25.303 8.2071 23.0494 5.91489ZM14.5404 24.3698C12.7449 24.3604 10.9857 23.8634 9.45087 22.9318L9.06178 22.6998L5.29299 23.6701L6.34303 20.0186L6.10982 19.6295C5.12874 18.027 4.60436 16.1869 4.59336 14.308C4.59336 8.82939 9.02191 4.39964 14.5392 4.39964C17.1818 4.39964 19.6685 5.44968 21.533 7.31414C22.4609 8.2425 23.1961 9.34517 23.6963 10.5587C24.1965 11.7723 24.4518 13.0727 24.4475 14.3853C24.5248 19.9424 20.0177 24.371 14.5392 24.371M20.0177 16.9119C19.7072 16.7561 18.2693 16.0178 17.9201 15.9791C17.6482 15.8619 17.415 15.8232 17.2591 16.135C17.1032 16.4455 16.4822 17.0666 16.3263 17.2998C16.1716 17.4557 16.0157 17.533 15.6665 17.3385C15.3548 17.1838 14.4219 16.9119 13.2571 15.8232C12.3629 15.0463 11.7419 14.0748 11.6259 13.7256C11.47 13.415 11.586 13.2978 11.7805 13.1033C11.9364 12.9486 12.0923 12.7927 12.2083 12.5595C12.3642 12.4048 12.3642 12.249 12.5188 12.0544C12.6747 11.8998 12.5575 11.6666 12.4802 11.5107C12.3642 11.356 11.8192 9.87943 11.5473 9.25714C11.3141 8.63605 11.0422 8.75205 10.8876 8.75205H10.3438C10.1867 8.75205 9.80007 8.79072 9.56566 9.14114C9.29378 9.45168 8.51682 10.19 8.51682 11.6666C8.51682 13.1431 9.56566 14.5025 9.76141 14.7744C9.91607 14.9303 11.8977 17.9994 14.8509 19.3201C15.5493 19.6307 16.0931 19.8252 16.5595 19.9811C17.2591 20.2143 17.9201 20.1358 18.4252 20.0971C19.0076 20.0584 20.1736 19.3975 20.4455 18.6592C20.6787 17.9994 20.6787 17.3385 20.6002 17.2213C20.5228 17.1451 20.2896 17.0279 20.0177 16.9119Z" fill="white"/>
</svg>
