<svg width="22" height="22" viewBox="0 0 22 22" fill="none" xmlns="http://www.w3.org/2000/svg">
<path d="M15.125 5.5V6.1875M15.125 8.9375V9.625M15.125 12.375V13.0625M15.125 15.8125V16.5M6.875 11.6875H11.6875M6.875 13.75H9.625M3.09375 4.8125C2.5245 4.8125 2.0625 5.2745 2.0625 5.84375V8.61758C2.48118 8.85864 2.82895 9.20579 3.07076 9.62404C3.31257 10.0423 3.43989 10.5169 3.43989 11C3.43989 11.4831 3.31257 11.9577 3.07076 12.376C2.82895 12.7942 2.48118 13.1414 2.0625 13.3824V16.1563C2.0625 16.7255 2.5245 17.1875 3.09375 17.1875H18.9063C19.4755 17.1875 19.9375 16.7255 19.9375 16.1563V13.3824C19.5188 13.1414 19.1711 12.7942 18.9292 12.376C18.6874 11.9577 18.5601 11.4831 18.5601 11C18.5601 10.5169 18.6874 10.0423 18.9292 9.62404C19.1711 9.20579 19.5188 8.85864 19.9375 8.61758V5.84375C19.9375 5.2745 19.4755 4.8125 18.9063 4.8125H3.09375Z" stroke="#64748B" stroke-width="1.5" stroke-linecap="round" stroke-linejoin="round"/>
</svg>
