<svg width="22" height="22" viewBox="0 0 22 22" fill="none" xmlns="http://www.w3.org/2000/svg">
<path d="M9.99625 15.4413C9.35917 15.1012 8.9375 14.4201 8.9375 13.6528V9.724C8.9375 8.68358 9.71208 7.80084 10.7488 7.71467C13.2037 7.51088 15.6713 7.51088 18.1262 7.71467C18.2745 7.72694 18.4209 7.75616 18.5625 7.80175C19.3728 8.06208 19.9375 8.83575 19.9375 9.724V13.6528C19.9375 14.6942 19.1611 15.5778 18.1225 15.6631C17.8108 15.6878 17.4992 15.7108 17.1875 15.7291V18.5625L14.4375 15.8125C13.1963 15.8125 11.968 15.7621 10.7525 15.6631C10.4879 15.6417 10.2305 15.5662 9.99625 15.4413ZM18.5625 7.80175V6.08392C18.5625 4.598 17.5065 3.31008 16.0325 3.1185C14.1358 2.87264 12.2251 2.74955 10.3125 2.75C8.37375 2.75 6.46433 2.87558 4.5925 3.1185C3.1185 3.31008 2.0625 4.598 2.0625 6.08392V11.7911C2.0625 13.277 3.1185 14.5649 4.5925 14.7565C5.12142 14.8253 5.65308 14.8848 6.1875 14.9343V19.25L9.99625 15.4413" stroke="#64748B" stroke-width="1.5" stroke-linecap="round" stroke-linejoin="round"/>
</svg>
