<svg width="22" height="22" viewBox="0 0 22 22" fill="none" xmlns="http://www.w3.org/2000/svg">
<path d="M10.4671 13.9058L15.8113 19.25C16.2696 19.6937 16.884 19.9394 17.5219 19.9343C18.1597 19.9291 18.77 19.6734 19.2211 19.2223C19.6722 18.7712 19.9279 18.161 19.933 17.5231C19.9382 16.8852 19.6925 16.2708 19.2488 15.8125L13.8615 10.4252M9.17919 10.6388L10.7788 9.32158L6.87378 5.41658V4.125L3.43628 2.0625L2.06128 3.4375L4.12378 6.875H5.41536L9.18011 10.6397L2.91286 15.8006C2.66077 16.0074 2.45477 16.2647 2.30813 16.5559C2.16149 16.8471 2.07745 17.1659 2.06142 17.4915C2.04539 17.8172 2.09773 18.1426 2.21506 18.4468C2.3324 18.7511 2.51213 19.0273 2.74269 19.2579C2.97326 19.4885 3.24954 19.6682 3.55377 19.7855C3.85799 19.9029 4.18341 19.9552 4.50908 19.9392C4.83475 19.9232 5.15346 19.8391 5.44469 19.6925C5.73592 19.5458 5.99322 19.3398 6.20003 19.0877L10.4671 13.9058L12.7551 11.1283C13.0457 10.7763 13.4334 10.5545 13.8624 10.4262C14.3666 10.2758 14.9285 10.2538 15.4602 10.2978C16.1769 10.3594 16.8972 10.2324 17.5496 9.92962C18.2021 9.6268 18.7641 9.15864 19.1797 8.57157C19.5954 7.98451 19.8503 7.29896 19.9191 6.58295C19.988 5.86694 19.8685 5.14537 19.5724 4.48983L16.5694 7.49375C16.0669 7.37757 15.6072 7.12265 15.2426 6.75801C14.878 6.39337 14.623 5.93367 14.5069 5.43125L17.5099 2.42825C16.8543 2.13213 16.1328 2.01258 15.4167 2.08146C14.7007 2.15034 14.0152 2.40525 13.4281 2.8209C12.8411 3.23655 12.3729 3.7985 12.0701 4.45096C11.7673 5.10343 11.6403 5.82374 11.7019 6.54042C11.7853 7.52675 11.6368 8.61575 10.8732 9.24458L10.7797 9.3225M16.8425 16.8437L14.4363 14.4375M4.46019 17.5312H4.46753V17.5386H4.46019V17.5312Z" stroke="#64748B" stroke-width="1.5" stroke-linecap="round" stroke-linejoin="round"/>
</svg>
