<svg width="22" height="22" viewBox="0 0 22 22" fill="none" xmlns="http://www.w3.org/2000/svg">
<path d="M18.5625 6.875L17.9896 16.621C17.9587 17.1463 17.7282 17.6399 17.3453 18.0009C16.9624 18.3618 16.456 18.5627 15.9298 18.5625H6.07017C5.54397 18.5627 5.03758 18.3618 4.65467 18.0009C4.27177 17.6399 4.04129 17.1463 4.01042 16.621L3.4375 6.875M9.16667 10.3125H12.8333M3.09375 6.875H18.9063C19.4755 6.875 19.9375 6.413 19.9375 5.84375V4.46875C19.9375 3.8995 19.4755 3.4375 18.9063 3.4375H3.09375C2.5245 3.4375 2.0625 3.8995 2.0625 4.46875V5.84375C2.0625 6.413 2.5245 6.875 3.09375 6.875Z" stroke="#64748B" stroke-width="1.5" stroke-linecap="round" stroke-linejoin="round"/>
</svg>
