<svg width="22" height="22" viewBox="0 0 22 22" fill="none" xmlns="http://www.w3.org/2000/svg">
<path d="M2.0625 6.53125C2.0625 5.962 2.5245 5.5 3.09375 5.5H8.59375C9.163 5.5 9.625 5.962 9.625 6.53125V9.96875C9.625 10.538 9.163 11 8.59375 11H3.09375C2.82025 11 2.55794 10.8914 2.36455 10.698C2.17115 10.5046 2.0625 10.2423 2.0625 9.96875V6.53125ZM13.0625 7.90625C13.0625 7.337 13.5245 6.875 14.0938 6.875H18.9063C19.4755 6.875 19.9375 7.337 19.9375 7.90625V15.4688C19.9375 16.038 19.4755 16.5 18.9063 16.5H14.0938C13.8202 16.5 13.5579 16.3914 13.3645 16.198C13.1711 16.0046 13.0625 15.7423 13.0625 15.4688V7.90625ZM3.4375 14.7813C3.4375 14.212 3.8995 13.75 4.46875 13.75H9.28125C9.8505 13.75 10.3125 14.212 10.3125 14.7813V16.8438C10.3125 17.413 9.8505 17.875 9.28125 17.875H4.46875C4.19525 17.875 3.93294 17.7664 3.73955 17.573C3.54615 17.3796 3.4375 17.1173 3.4375 16.8438V14.7813Z" stroke="#64748B" stroke-width="1.5" stroke-linecap="round" stroke-linejoin="round"/>
</svg>
