<svg width="22" height="22" viewBox="0 0 22 22" fill="none" xmlns="http://www.w3.org/2000/svg">
<path d="M8.24908 17.534C7.46719 17.761 6.65702 17.8758 5.84283 17.875C4.53346 17.8769 3.24111 17.5783 2.06525 17.0023C2.03049 16.1807 2.26451 15.3702 2.73186 14.6935C3.19921 14.0169 3.8744 13.5111 4.6551 13.2527C5.43581 12.9943 6.27945 12.9975 7.05818 13.2618C7.83691 13.526 8.50827 14.0369 8.9705 14.7171M8.9705 14.7171C9.59467 13.5795 10.5797 12.682 11.7703 12.1661C12.9609 11.6502 14.2894 11.5452 15.5462 11.8677C16.8031 12.1902 17.9168 12.9219 18.7119 13.9473C19.507 14.9728 19.9382 16.2337 19.9375 17.5313L19.9366 17.6312C18.2297 18.6588 16.2305 19.25 14.0937 19.25C12.0344 19.2535 10.0132 18.6937 8.24908 17.6312V17.534V17.5313C8.24908 16.511 8.51125 15.5513 8.9705 14.7171ZM10.9991 5.84375C10.9991 6.66426 11.325 7.45117 11.9052 8.03136C12.4854 8.61155 13.2723 8.9375 14.0928 8.9375C14.9133 8.9375 15.7003 8.61155 16.2804 8.03136C16.8606 7.45117 17.1866 6.66426 17.1866 5.84375C17.1866 5.02324 16.8606 4.23633 16.2804 3.65614C15.7003 3.07595 14.9133 2.75 14.0928 2.75C13.2723 2.75 12.4854 3.07595 11.9052 3.65614C11.325 4.23633 10.9991 5.02324 10.9991 5.84375ZM3.43658 7.90625C3.43658 8.54443 3.6901 9.15647 4.14136 9.60773C4.59262 10.059 5.20466 10.3125 5.84283 10.3125C6.48101 10.3125 7.09305 10.059 7.54431 9.60773C7.99557 9.15647 8.24908 8.54443 8.24908 7.90625C8.24908 7.26807 7.99557 6.65603 7.54431 6.20477C7.09305 5.75352 6.48101 5.5 5.84283 5.5C5.20466 5.5 4.59262 5.75352 4.14136 6.20477C3.6901 6.65603 3.43658 7.26807 3.43658 7.90625Z" stroke="#64748B" stroke-width="1.5" stroke-linecap="round" stroke-linejoin="round"/>
</svg>
