<svg width="22" height="22" viewBox="0 0 22 22" fill="none" xmlns="http://www.w3.org/2000/svg">
<path d="M18.5626 12.9708V16.8667C18.5626 17.8695 17.8411 18.733 16.8466 18.865C14.9335 19.1189 12.9819 19.25 11.0001 19.25C9.01822 19.25 7.06663 19.1189 5.15355 18.865C4.15897 18.733 3.43755 17.8695 3.43755 16.8667V12.9708M18.5626 12.9708C18.7802 12.7817 18.9544 12.5477 19.073 12.2848C19.1917 12.022 19.2521 11.7366 19.2501 11.4483V7.9805C19.2501 6.98958 18.5461 6.13342 17.5661 5.98675C16.5278 5.8313 15.4843 5.71298 14.4376 5.632M18.5626 12.9708C18.3847 13.1221 18.1776 13.2412 17.9456 13.3192C15.7055 14.0624 13.3603 14.4401 11.0001 14.4375C8.57272 14.4375 6.23797 14.0443 4.05447 13.3192C3.82829 13.2439 3.6188 13.1256 3.43755 12.9708M3.43755 12.9708C3.21988 12.7817 3.04573 12.5477 2.92706 12.2848C2.80838 12.022 2.748 11.7366 2.75005 11.4483V7.9805C2.75005 6.98958 3.45405 6.13342 4.43397 5.98675C5.47227 5.8313 6.5158 5.71297 7.56255 5.632M14.4376 5.632V4.8125C14.4376 4.26549 14.2203 3.74089 13.8335 3.35409C13.4467 2.9673 12.9221 2.75 12.3751 2.75H9.62505C9.07804 2.75 8.55344 2.9673 8.16664 3.35409C7.77985 3.74089 7.56255 4.26549 7.56255 4.8125V5.632M14.4376 5.632C12.1493 5.45515 9.85081 5.45515 7.56255 5.632M11.0001 11.6875H11.0074V11.6948H11.0001V11.6875Z" stroke="#B34E0A" stroke-width="1.5" stroke-linecap="round" stroke-linejoin="round"/>
</svg>
