<svg width="28" height="28" viewBox="0 0 28 28" fill="none" xmlns="http://www.w3.org/2000/svg">
<path d="M17.5012 22.316C18.4963 22.6049 19.5274 22.7511 20.5637 22.75C22.2301 22.7524 23.8749 22.3724 25.3715 21.6393C25.4157 20.5936 25.1179 19.562 24.5231 18.7009C23.9283 17.8397 23.0689 17.1959 22.0753 16.8671C21.0817 16.5383 20.008 16.5423 19.0169 16.8786C18.0257 17.2149 17.1713 17.8652 16.583 18.7308M16.583 18.7308C15.7886 17.283 14.5349 16.1407 13.0196 15.4841C11.5043 14.8275 9.81354 14.6939 8.2139 15.1044C6.61427 15.5148 5.19675 16.446 4.18481 17.7511C3.17288 19.0563 2.62411 20.661 2.625 22.3125L2.62617 22.4397C4.7985 23.7475 7.343 24.5 10.0625 24.5C12.6835 24.5044 15.2559 23.7919 17.5012 22.4397V22.316V22.3125C17.5012 21.014 17.1675 19.7925 16.583 18.7308ZM14.0012 7.4375C14.0012 8.48179 13.5863 9.48331 12.8479 10.2217C12.1095 10.9602 11.108 11.375 10.0637 11.375C9.01938 11.375 8.01786 10.9602 7.27943 10.2217C6.54101 9.48331 6.12617 8.48179 6.12617 7.4375C6.12617 6.39321 6.54101 5.39169 7.27943 4.65327C8.01786 3.91484 9.01938 3.5 10.0637 3.5C11.108 3.5 12.1095 3.91484 12.8479 4.65327C13.5863 5.39169 14.0012 6.39321 14.0012 7.4375ZM23.6262 10.0625C23.6262 10.8747 23.3035 11.6537 22.7292 12.228C22.1549 12.8023 21.3759 13.125 20.5637 13.125C19.7514 13.125 18.9725 12.8023 18.3982 12.228C17.8238 11.6537 17.5012 10.8747 17.5012 10.0625C17.5012 9.25027 17.8238 8.47131 18.3982 7.89698C18.9725 7.32265 19.7514 7 20.5637 7C21.3759 7 22.1549 7.32265 22.7292 7.89698C23.3035 8.47131 23.6262 9.25027 23.6262 10.0625Z" stroke="#137FEC" stroke-width="2" stroke-linecap="round" stroke-linejoin="round"/>
</svg>
