<svg width="32" height="32" viewBox="0 0 32 32" fill="none" xmlns="http://www.w3.org/2000/svg">
<path d="M26.6005 22.8654L24.6005 20.8654C24.845 20.2654 25.0285 19.6711 25.1512 19.0827C25.2739 18.4943 25.3347 17.9107 25.3339 17.332C25.3339 14.7543 24.4227 12.5543 22.6005 10.732C20.7783 8.90981 18.5783 7.9987 16.0005 7.9987C15.4672 7.9987 14.9005 8.05425 14.3005 8.16536C13.7005 8.27647 13.0783 8.45425 12.4339 8.6987L10.4339 6.6987C11.2783 6.25425 12.1725 5.91514 13.1165 5.68136C14.0605 5.44759 15.0219 5.33114 16.0005 5.33203C17.3339 5.33203 18.6396 5.55425 19.9179 5.9987C21.1961 6.44314 22.4014 7.08759 23.5339 7.93203L25.4005 6.06536L27.2672 7.93203L25.4005 9.7987C26.245 10.932 26.8894 12.1378 27.3339 13.416C27.7783 14.6943 28.0005 15.9996 28.0005 17.332C28.0005 18.2654 27.8841 19.1934 27.6512 20.116C27.4183 21.0387 27.0681 21.9551 26.6005 22.8654ZM17.3339 13.5987V10.6654H14.6672V10.932L17.3339 13.5987ZM26.4005 30.132L23.2005 26.932C22.1339 27.7098 20.9836 28.3045 19.7499 28.716C18.5161 29.1276 17.2663 29.3329 16.0005 29.332C14.3561 29.332 12.8059 29.0156 11.3499 28.3827C9.89386 27.7498 8.62186 26.8885 7.53386 25.7987C6.44586 24.7089 5.58497 23.4365 4.95119 21.9814C4.31741 20.5263 4.00052 18.9765 4.00052 17.332C4.00052 15.9987 4.2063 14.7156 4.61786 13.4827C5.02941 12.2498 5.62363 11.1329 6.40052 10.132L1.86719 5.5987L3.73385 3.73203L28.2672 28.2654L26.4005 30.132ZM16.0005 26.6654C16.9339 26.6654 17.845 26.5209 18.7339 26.232C19.6227 25.9431 20.4561 25.532 21.2339 24.9987L8.26719 12.032C7.73385 12.8098 7.33386 13.6431 7.06719 14.532C6.80052 15.4209 6.66719 16.3543 6.66719 17.332C6.66719 19.9098 7.5783 22.1098 9.40052 23.932C11.2227 25.7543 13.4227 26.6654 16.0005 26.6654ZM12.0005 3.9987V1.33203H20.0005V3.9987H12.0005Z" fill="#D22F27"/>
</svg>
